<svg id="Ebene_1" data-name="Ebene 1" xmlns="http://www.w3.org/2000/svg" viewBox="0 0 359 118"><defs><style>.cls-1{fill:#fff;}</style></defs><path class="cls-1" d="M20.75,38.26c-6.88,9.9-6,22.77-.76,33.28.12.26.25.5.38.75s.16.32.25.48l.15.27.27.49.51.86.28.47c.19.31.39.61.59.91l.24.39c.28.41.56.81.85,1.21a.05.05,0,0,0,0,0,1.33,1.33,0,0,1,.14.19l.77,1,.29.37.71.87.28.33c.32.38.65.76,1,1.13l0,0,0,0c.33.36.67.71,1,1.06l.32.33.81.79.33.31c.36.34.72.67,1.1,1h0l.19.17,1,.84.41.33.83.66.45.33.93.68.35.24.09.06.91.61.39.26c.47.29.94.59,1.42.87l.4.22,1.07.6.59.3.76.4.18.09c.1,0,.21.09.31.15l1.21.56.26.11c.46.21.93.4,1.41.59l.34.13,1.34.5.16.06c.49.17,1,.33,1.49.48l.36.11a13.93,13.93,0,0,0,1.53.43c33.3,6.08,43-20,43-20C83.58,85.24,69.16,88,55.5,84.92c-.52-.12-1-.28-1.53-.43l-.38-.11c-.49-.15-1-.31-1.46-.48l-.21-.07-1.29-.48-.36-.15c-.47-.18-.94-.37-1.4-.58l-.28-.12L47.41,82l-.34-.16c-.31-.15-.61-.31-.91-.47L45.55,81c-.37-.2-.73-.41-1.09-.62l-.37-.2-1.43-.87-.38-.26c-.34-.22-.68-.44-1-.67l-.33-.23-1-.7-.42-.32-.87-.67-.38-.31-1.08-.91-.11-.1c-.39-.33-.76-.68-1.14-1l-.31-.3c-.28-.26-.55-.53-.82-.8-.1-.11-.21-.21-.32-.32-.33-.34-.67-.69-1-1l0-.05c-.35-.38-.68-.77-1-1.16l-.27-.31-.73-.9-.26-.33c-.29-.37-.57-.75-.84-1.12-7.59-10.35-10.31-24.62-4.25-36.34"/><path class="cls-1" d="M42.13,29.92c-5,7.17-4.71,16.76-.83,24.34a32.39,32.39,0,0,0,2.2,3.67,17.68,17.68,0,0,0,2.57,3.2c.36.4.73.78,1.11,1.16l.3.29c.37.37.75.72,1.14,1.06l.05,0h0c.43.37.88.74,1.33,1.1l.3.23c.46.35.92.7,1.4,1l0,0c.21.15.42.28.63.42s.2.14.31.2l1,.64.15.08c.3.17.6.35.91.51l.32.17.64.33.1,0,1.33.62.3.12,1.09.44.47.17c.33.13.66.24,1,.35l.46.15a11.53,11.53,0,0,0,1.45.42C87.65,75,93.58,55.21,93.58,55.21c-5.35,7.71-15.71,11.38-26.77,8.51-.49-.13-1-.27-1.45-.42l-.44-.14-1-.35-.46-.17-1.1-.44-.29-.13c-.45-.2-.9-.4-1.34-.62L60,61.11l-.39-.2-.85-.48-.21-.12c-.35-.2-.69-.41-1-.63l-.31-.21L56.58,59c-.47-.32-.93-.67-1.39-1l-.31-.25a31,31,0,0,1-10.5-15,23.23,23.23,0,0,1,1.81-18.63"/><path class="cls-1" d="M60.1,23.69a15,15,0,0,0-1.18,14.46A20.31,20.31,0,0,0,70.6,49.07l.64.22.28.09a8.89,8.89,0,0,0,.92.26c14.19,2.75,18-7.28,19.07-8.76-3.38,4.86-9,6-16,4.34-.55-.14-1.15-.33-1.68-.52a20.54,20.54,0,0,1-2-.83,21.57,21.57,0,0,1-3.5-2.14C62.1,37,58.24,28,62.3,20.66"/><path class="cls-1" d="M124.36,40.47h9.12l-2.85,13.91h11.06l2.74-13.91h9.12l-7.41,37.06H137l3.08-15.17H129l-3,15.17H117Z"/><path class="cls-1" d="M162.21,40.47h22.58l-1.49,7.64H169.74l-1.26,6.5H180l-1.49,7.64H167l-1.6,7.64h14l-1.49,7.64H154.8Z"/><path class="cls-1" d="M192.76,40.47h9.12L196,69.89h13.46l-1.48,7.64H185.35Z"/><path class="cls-1" d="M222.06,40.47h12.2c7.35,0,13.11,2.74,13.11,10.15,0,10.83-8.15,14.82-17.44,14.82h-3.77l-2.39,12.09h-9.12ZM231,58.26c4.67,0,7.35-2.17,7.35-6.27,0-3-2-4.33-5.35-4.33H229.7l-2,10.6Z"/><path class="cls-1" d="M256,40.47h22.58l-1.49,7.64H263.56l-1.26,6.5h11.52l-1.48,7.64H260.82l-1.6,7.64h14l-1.48,7.64H248.62Z"/><path class="cls-1" d="M286.58,40.47h12.2c7.41,0,13.11,2.63,13.11,9.81,0,10.26-8.32,14.48-17.1,14.48h-4l-2.51,12.77h-9.12Zm9,17.11c4.9,0,7.3-2.4,7.3-5.93,0-2.74-1.94-4-5.36-4h-3.31l-1.94,9.92Zm-1.71,5,6.5-5.93,8.09,20.87H298.9Z"/></svg>